<svg version="1.1" xmlns="http://www.w3.org/2000/svg" xmlns:xlink="http://www.w3.org/1999/xlink" width="1102" height="591"><defs><clipPath id="gnsrWCxwrksr"><path fill="none" stroke="none" d=" M 0 0 L 1102 0 L 1102 591 L 0 591 L 0 0 Z"/></clipPath></defs><g transform="scale(1,1)" clip-path="url(#gnsrWCxwrksr)"><g><rect fill="rgb(255,255,255)" stroke="none" x="0" y="0" width="1102" height="591" fill-opacity="1"/><path fill="none" stroke="rgb(110,109,115)" paint-order="fill stroke markers" d=" M 575.0762500000002 155.52524999999991 L 214.25425000000018 419.7892499999998" stroke-opacity="0.8" stroke-linecap="round" stroke-linejoin="round" stroke-miterlimit="10" stroke-width="2.5"/><path fill="none" stroke="rgb(110,109,115)" paint-order="fill stroke markers" d=" M 214.25425000000018 419.7892499999998 L 641.1422500000001 419.7892499999998" stroke-opacity="0.8" stroke-linecap="round" stroke-linejoin="round" stroke-miterlimit="10" stroke-width="2.5"/><path fill="none" stroke="rgb(110,109,115)" paint-order="fill stroke markers" d=" M 641.1422500000001 419.7892499999998 L 575.0762500000002 155.52524999999991" stroke-opacity="0.8" stroke-linecap="round" stroke-linejoin="round" stroke-miterlimit="10" stroke-width="2.5"/><path fill="none" stroke="rgb(110,109,115)" paint-order="fill stroke markers" d=" M 575.0762500000002 155.52524999999991 L 479.5576615194215 419.7892499999998" stroke-opacity="0.8" stroke-linecap="round" stroke-linejoin="round" stroke-miterlimit="10" stroke-width="2.5"/><path fill="rgb(21,101,192)" stroke="none" paint-order="stroke fill markers" d=" M 580.0762500000002 155.52524999999991 C 580.0762500000002 158.2866737491539 577.8376737491542 160.52524999999991 575.0762500000002 160.52524999999991 C 572.3148262508462 160.52524999999991 570.0762500000002 158.2866737491539 570.0762500000002 155.52524999999991 C 570.0762500000002 152.76382625084594 572.3148262508462 150.52524999999991 575.0762500000002 150.52524999999991 C 577.8376737491542 150.52524999999991 580.0762500000002 152.76382625084594 580.0762500000002 155.52524999999991 Z" fill-opacity="1"/><path fill="none" stroke="rgb(0,0,0)" paint-order="fill stroke markers" d=" M 580.0762500000002 155.52524999999991 C 580.0762500000002 158.2866737491539 577.8376737491542 160.52524999999991 575.0762500000002 160.52524999999991 C 572.3148262508462 160.52524999999991 570.0762500000002 158.2866737491539 570.0762500000002 155.52524999999991 C 570.0762500000002 152.76382625084594 572.3148262508462 150.52524999999991 575.0762500000002 150.52524999999991 C 577.8376737491542 150.52524999999991 580.0762500000002 152.76382625084594 580.0762500000002 155.52524999999991 Z" stroke-opacity="1" stroke-linecap="round" stroke-linejoin="round" stroke-miterlimit="10"/><text fill="rgb(21,101,192)" stroke="none" font-family="geogebra-sans-serif, sans-serif" font-size="16px" font-style="normal" font-weight="normal" text-decoration="normal" x="579" y="146" text-anchor="start" dominant-baseline="alphabetic" fill-opacity="1">A</text><path fill="rgb(21,101,192)" stroke="none" paint-order="stroke fill markers" d=" M 219.25425000000018 419.7892499999998 C 219.25425000000018 422.55067374915376 217.01567374915416 424.7892499999998 214.25425000000018 424.7892499999998 C 211.4928262508462 424.7892499999998 209.25425000000018 422.55067374915376 209.25425000000018 419.7892499999998 C 209.25425000000018 417.02782625084586 211.4928262508462 414.7892499999998 214.25425000000018 414.7892499999998 C 217.01567374915416 414.7892499999998 219.25425000000018 417.02782625084586 219.25425000000018 419.7892499999998 Z" fill-opacity="1"/><path fill="none" stroke="rgb(0,0,0)" paint-order="fill stroke markers" d=" M 219.25425000000018 419.7892499999998 C 219.25425000000018 422.55067374915376 217.01567374915416 424.7892499999998 214.25425000000018 424.7892499999998 C 211.4928262508462 424.7892499999998 209.25425000000018 422.55067374915376 209.25425000000018 419.7892499999998 C 209.25425000000018 417.02782625084586 211.4928262508462 414.7892499999998 214.25425000000018 414.7892499999998 C 217.01567374915416 414.7892499999998 219.25425000000018 417.02782625084586 219.25425000000018 419.7892499999998 Z" stroke-opacity="1" stroke-linecap="round" stroke-linejoin="round" stroke-miterlimit="10"/><text fill="rgb(21,101,192)" stroke="none" font-family="geogebra-sans-serif, sans-serif" font-size="16px" font-style="normal" font-weight="normal" text-decoration="normal" x="218" y="410" text-anchor="start" dominant-baseline="alphabetic" fill-opacity="1">B</text><path fill="rgb(21,101,192)" stroke="none" paint-order="stroke fill markers" d=" M 646.1422500000001 419.7892499999998 C 646.1422500000001 422.55067374915376 643.9036737491541 424.7892499999998 641.1422500000001 424.7892499999998 C 638.3808262508461 424.7892499999998 636.1422500000001 422.55067374915376 636.1422500000001 419.7892499999998 C 636.1422500000001 417.02782625084586 638.3808262508461 414.7892499999998 641.1422500000001 414.7892499999998 C 643.9036737491541 414.7892499999998 646.1422500000001 417.02782625084586 646.1422500000001 419.7892499999998 Z" fill-opacity="1"/><path fill="none" stroke="rgb(0,0,0)" paint-order="fill stroke markers" d=" M 646.1422500000001 419.7892499999998 C 646.1422500000001 422.55067374915376 643.9036737491541 424.7892499999998 641.1422500000001 424.7892499999998 C 638.3808262508461 424.7892499999998 636.1422500000001 422.55067374915376 636.1422500000001 419.7892499999998 C 636.1422500000001 417.02782625084586 638.3808262508461 414.7892499999998 641.1422500000001 414.7892499999998 C 643.9036737491541 414.7892499999998 646.1422500000001 417.02782625084586 646.1422500000001 419.7892499999998 Z" stroke-opacity="1" stroke-linecap="round" stroke-linejoin="round" stroke-miterlimit="10"/><text fill="rgb(21,101,192)" stroke="none" font-family="geogebra-sans-serif, sans-serif" font-size="16px" font-style="normal" font-weight="normal" text-decoration="normal" x="645" y="410" text-anchor="start" dominant-baseline="alphabetic" fill-opacity="1">C</text><path fill="rgb(110,109,115)" stroke="none" paint-order="stroke fill markers" d=" M 483.5576615194215 419.7892499999998 C 483.5576615194215 421.99838899932297 481.7668005187447 423.7892499999998 479.5576615194215 423.7892499999998 C 477.34852252009836 423.7892499999998 475.5576615194215 421.99838899932297 475.5576615194215 419.7892499999998 C 475.5576615194215 417.58011100067665 477.34852252009836 415.7892499999998 479.5576615194215 415.7892499999998 C 481.7668005187447 415.7892499999998 483.5576615194215 417.58011100067665 483.5576615194215 419.7892499999998 Z" fill-opacity="1"/><path fill="none" stroke="rgb(0,0,0)" paint-order="fill stroke markers" d=" M 483.5576615194215 419.7892499999998 C 483.5576615194215 421.99838899932297 481.7668005187447 423.7892499999998 479.5576615194215 423.7892499999998 C 477.34852252009836 423.7892499999998 475.5576615194215 421.99838899932297 475.5576615194215 419.7892499999998 C 475.5576615194215 417.58011100067665 477.34852252009836 415.7892499999998 479.5576615194215 415.7892499999998 C 481.7668005187447 415.7892499999998 483.5576615194215 417.58011100067665 483.5576615194215 419.7892499999998 Z" stroke-opacity="1" stroke-linecap="round" stroke-linejoin="round" stroke-miterlimit="10"/><text fill="rgb(110,109,115)" stroke="none" font-family="geogebra-sans-serif, sans-serif" font-size="16px" font-style="normal" font-weight="normal" text-decoration="normal" x="484" y="412" text-anchor="start" dominant-baseline="alphabetic" fill-opacity="1">P</text></g></g></svg>