<?xml version="1.0" encoding="UTF-8" standalone="no"?> 
<svg xmlns="http://www.w3.org/2000/svg" xmlns:xlink="http://www.w3.org/1999/xlink" width="182.59676pt" height="158.11903pt" viewBox="-13.39696 -12.88136 182.59676 158.11903 "> 
<g transform="translate(0, 145.23767 ) scale(1,-1) translate(0,12.88136 )"> 
        <g stroke="#000" fill="#000">
 <g stroke-width="0.4">
 <g stroke-linejoin="round">
 <g stroke-linecap="round">
 <g stroke-width="0.8">
 <path d=" M 13.99887 134.8006 L 0.0 58.08334 L 73.43938 84.31668 Z  " fill="none"/>
 </g>
 <g stroke-width="0.8">
 <path d=" M 73.43938 84.31668 L 138.94026 26.23334 L 156.49008 112.0014 Z  " fill="none"/>
 </g>
 <g stroke-width="0.8">
 <path d=" M 0.0 58.08334 L 138.94026 26.23334  " fill="none"/>
 </g>
 <g stroke-width="0.8">
 <g stroke="#00f" fill="#00f">
 <path d=" M 69.47034 42.15855 L 43.7176 109.55713 L 114.96321 98.15927 Z  " fill="none"/>
 </g>
 </g>
 <g stroke-width="0.8">
 <g stroke-dasharray="3.0,3.0" stroke-dashoffset="0.0">
 <g stroke="#f00" fill="#f00">
 <path d=" M 73.43938 84.31668 L 65.50087 0.0  " fill="none"/>
 </g>
 </g>
 </g>
 <g stroke-width="0.8">
 <g stroke-dasharray="3.0,3.0" stroke-dashoffset="0.0">
 <g stroke="#f00" fill="#f00">
 <g stroke-width="0.4">
 <path d=" M 0.0 58.08334 L 65.50087 0.0 L 138.94026 26.23334  " fill="none"/>
 </g>
 </g>
 </g>
 </g>
 <g stroke-width="0.8">
 <g stroke-dasharray="3.0,3.0" stroke-dashoffset="0.0">
 <g stroke="#f00" fill="#f00">
 <path d=" M 13.99887 134.8006 L 65.50087 0.0 L 156.49008 112.0014 Z  " fill="none"/>
 </g>
 </g>
 </g>
 <path d=" M 13.99887 134.8006 M 15.29887 134.8006 C 15.29887 135.51857 14.71684 136.1006 13.99887 136.1006 C 13.2809 136.1006 12.69887 135.51857 12.69887 134.8006 C 12.69887 134.08263 13.2809 133.5006 13.99887 133.5006 C 14.71684 133.5006 15.29887 134.08263 15.29887 134.8006 Z M 13.99887 134.8006  " stroke="none"/>
 <path d=" M 0.0 58.08334 M 1.3 58.08334 C 1.3 58.80132 0.71797 59.38335 0.0 59.38335 C -0.71797 59.38335 -1.3 58.80132 -1.3 58.08334 C -1.3 57.36537 -0.71797 56.78334 0.0 56.78334 C 0.71797 56.78334 1.3 57.36537 1.3 58.08334 Z M 0.0 58.08334  " stroke="none"/>
 <path d=" M 73.43938 84.31668 M 74.73938 84.31668 C 74.73938 85.03465 74.15735 85.61668 73.43938 85.61668 C 72.7214 85.61668 72.13937 85.03465 72.13937 84.31668 C 72.13937 83.59871 72.7214 83.01668 73.43938 83.01668 C 74.15735 83.01668 74.73938 83.59871 74.73938 84.31668 Z M 73.43938 84.31668  " stroke="none"/>
 <path d=" M 138.94026 26.23334 M 140.24026 26.23334 C 140.24026 26.95131 139.65823 27.53334 138.94026 27.53334 C 138.22229 27.53334 137.64026 26.95131 137.64026 26.23334 C 137.64026 25.51537 138.22229 24.93333 138.94026 24.93333 C 139.65823 24.93333 140.24026 25.51537 140.24026 26.23334 Z M 138.94026 26.23334  " stroke="none"/>
 <path d=" M 156.49008 112.0014 M 157.79008 112.0014 C 157.79008 112.71938 157.20805 113.3014 156.49008 113.3014 C 155.77211 113.3014 155.19008 112.71938 155.19008 112.0014 C 155.19008 111.28343 155.77211 110.7014 156.49008 110.7014 C 157.20805 110.7014 157.79008 111.28343 157.79008 112.0014 Z M 156.49008 112.0014  " stroke="none"/>
 <path d=" M 69.47034 42.15855 M 70.77034 42.15855 C 70.77034 42.87653 70.18831 43.45856 69.47034 43.45856 C 68.75237 43.45856 68.17033 42.87653 68.17033 42.15855 C 68.17033 41.44058 68.75237 40.85855 69.47034 40.85855 C 70.18831 40.85855 70.77034 41.44058 70.77034 42.15855 Z M 69.47034 42.15855  " stroke="none"/>
 <path d=" M 43.7176 109.55713 M 45.01761 109.55713 C 45.01761 110.2751 44.43558 110.85713 43.7176 110.85713 C 42.99963 110.85713 42.4176 110.2751 42.4176 109.55713 C 42.4176 108.83916 42.99963 108.25713 43.7176 108.25713 C 44.43558 108.25713 45.01761 108.83916 45.01761 109.55713 Z M 43.7176 109.55713  " stroke="none"/>
 <path d=" M 114.96321 98.15927 M 116.26321 98.15927 C 116.26321 98.87724 115.68118 99.45927 114.96321 99.45927 C 114.24524 99.45927 113.66321 98.87724 113.66321 98.15927 C 113.66321 97.4413 114.24524 96.85927 114.96321 96.85927 C 115.68118 96.85927 116.26321 97.4413 116.26321 98.15927 Z M 114.96321 98.15927  " stroke="none"/>
 <path d=" M 65.50087 0.0 M 66.80087 0.0 C 66.80087 0.71797 66.21884 1.3 65.50087 1.3 C 64.7829 1.3 64.20087 0.71797 64.20087 0.0 C 64.20087 -0.71797 64.7829 -1.3 65.50087 -1.3 C 66.21884 -1.3 66.80087 -0.71797 66.80087 0.0 Z M 65.50087 0.0  " stroke="none"/>
 <g transform="translate(68.02594,72.49524)">
 <g fill="#000">
 <text style="stroke:none" font-family="Times New Roman, serif" fill="#000" transform="scale(1,-1) translate(3.93124,0)" text-anchor="middle"  font-size="11"> 
 <tspan font-family="Times New Roman, serif" font-style="italic">C</tspan>
 </text> 
</g>
 </g>
 <g transform="translate(31.76321,110.40863)">
 <g fill="#000">
 <text style="stroke:none" font-family="Times New Roman, serif" fill="#000" transform="scale(1,-1) translate(4.56248,0)" text-anchor="middle"  font-size="11"> 
 <tspan font-family="Times New Roman, serif" font-style="italic">N</tspan>
 </text> 
</g>
 </g>
 <g transform="translate(115.8286,102.13452)">
 <g fill="#000">
 <text style="stroke:none" font-family="Times New Roman, serif" fill="#000" transform="scale(1,-1) translate(3.40279,0)" text-anchor="middle"  font-size="11"> 
 <tspan font-family="Times New Roman, serif" font-style="italic">L</tspan> 
 </text> 
</g>
 </g>
 <g transform="translate(72.60999,38.7419)">
 <g fill="#000">
 <text style="stroke:none" font-family="Times New Roman, serif" fill="#000" transform="scale(1,-1) translate(5.39583,0)" text-anchor="middle"  font-size="11"> 
 <tspan font-family="Times New Roman, serif" font-style="italic">M</tspan>
 </text> 
</g>
 </g>
 <g transform="translate(4.1998,137.40436)">
 <g fill="#000">
 <text style="stroke:none" font-family="Times New Roman, serif" fill="#000" transform="scale(1,-1) translate(3.75,0)" text-anchor="middle"  font-size="11"> 
 <tspan font-family="Times New Roman, serif" font-style="italic">A</tspan> 
 </text> 
</g>
 </g>
 <g transform="translate(-12.39696,52.90575)">
 <g fill="#000">
 <text style="stroke:none" font-family="Times New Roman, serif" fill="#000" transform="scale(1,-1) translate(4.0434,0)" text-anchor="middle"  font-size="11"> 
 <tspan font-family="Times New Roman, serif" font-style="italic">B</tspan> 
 </text> 
</g>
 </g>
 <g transform="translate(141.49625,17.70668)">
 <g fill="#000">
 <text style="stroke:none" font-family="Times New Roman, serif" fill="#000" transform="scale(1,-1) translate(4.27847,0)" text-anchor="middle"  font-size="11"> 
 <tspan font-family="Times New Roman, serif" font-style="italic">D</tspan> 
 </text> 
</g>
 </g>
 <g transform="translate(160.24149,112.20387)">
 <g fill="#000">
 <text style="stroke:none" font-family="Times New Roman, serif" fill="#000" transform="scale(1,-1) translate(3.97916,0)" text-anchor="middle"  font-size="11"> 
 <tspan font-family="Times New Roman, serif" font-style="italic">E</tspan> 
 </text> 
</g>
 </g>
 <g transform="translate(60.4897,-11.88136)">
 <g fill="#000">
 <text style="stroke:none" font-family="Times New Roman, serif" fill="#000" transform="scale(1,-1) translate(3.90451,0)" text-anchor="middle"  font-size="11"> 
 <tspan font-family="Times New Roman, serif" font-style="italic">P</tspan> 
 </text> 
</g>
 </g>
 </g>
 </g>
 </g>
 </g>
 
                                              </g> 
</svg> 
