<?xml version="1.0" encoding="UTF-8" standalone="no"?> 
<svg xmlns="http://www.w3.org/2000/svg" xmlns:xlink="http://www.w3.org/1999/xlink" width="183.89043pt" height="153.91121pt" viewBox="-13.26028 -12.66515 183.89043 153.91121 "> 
<g transform="translate(0, 141.24606 ) scale(1,-1) translate(0,12.66515 )"> 
        <g stroke="#000" fill="#000">
 <g stroke-width="0.4">
 <g stroke-linejoin="round">
 <g stroke-linecap="round">
 <g stroke-width="0.8">
 <path d=" M 0.0 65.20522 L 86.94028 0.0 L 156.49008 130.4074 Z  " fill="none"/>
 </g>
 <g stroke-width="0.8">
 <path d=" M 0.0 65.20522 L 121.71518 65.20522  " fill="none"/>
 </g>
 <g stroke-width="0.8">
 <path d=" M 86.94028 0.0 L 86.94028 101.42845  " fill="none"/>
 </g>
 <g stroke-width="0.8">
 <path d=" M 86.94028 0.0 L 121.71518 65.20522  " fill="none"/>
 <g stroke-width="0.4">
 <g stroke-dasharray="none" stroke-dashoffset="0.0">
 <path d=" M 106.96198 31.16798 L 101.66794 33.99129  " fill="none"/>
 </g>
 </g>
 </g>
 <g stroke-width="0.8">
 <path d=" M 121.71518 65.20522 L 156.49008 130.4074  " fill="none"/>
 <g stroke-width="0.4">
 <g stroke-dasharray="none" stroke-dashoffset="0.0">
 <path d=" M 141.7372 96.3716 L 136.44316 99.19508  " fill="none"/>
 </g>
 </g>
 </g>
 <g stroke-width="0.8">
 <g stroke-dasharray="3.0,3.0" stroke-dashoffset="0.0">
 <g stroke="#f00" fill="#f00">
 <path d=" M 121.71518 65.20522 L 156.49008 65.20522 L 156.49008 130.4074  " fill="none"/>
 </g>
 </g>
 </g>
 <g stroke-width="0.8">
 <g stroke-dasharray="3.0,3.0" stroke-dashoffset="0.0">
 <g stroke="#f00" fill="#f00">
 <path d=" M 86.94028 65.20522 L 156.49008 94.18414  " fill="none"/>
 </g>
 </g>
 </g>
 <g stroke-width="0.4">
 </g>
 <g stroke-width="0.4">
 <path d=" M 82.67255 65.20522 L 82.67255 60.93748 L 86.94028 60.93748  " fill="none"/>
 </g>
 <g stroke-width="0.4">
 </g>
 <g stroke-width="0.4">
 <path d=" M 152.22235 65.20522 L 152.22235 69.47295 L 156.49008 69.47295  " fill="none"/>
 </g>
 <path d=" M 0.0 65.20522 M 1.3 65.20522 C 1.3 65.92319 0.71797 66.50522 0.0 66.50522 C -0.71797 66.50522 -1.3 65.92319 -1.3 65.20522 C -1.3 64.48724 -0.71797 63.90521 0.0 63.90521 C 0.71797 63.90521 1.3 64.48724 1.3 65.20522 Z M 0.0 65.20522  " stroke="none"/>
 <path d=" M 86.94028 0.0 M 88.24028 0.0 C 88.24028 0.71797 87.65825 1.3 86.94028 1.3 C 86.2223 1.3 85.64027 0.71797 85.64027 0.0 C 85.64027 -0.71797 86.2223 -1.3 86.94028 -1.3 C 87.65825 -1.3 88.24028 -0.71797 88.24028 0.0 Z M 86.94028 0.0  " stroke="none"/>
 <path d=" M 156.49008 130.4074 M 157.79008 130.4074 C 157.79008 131.12537 157.20805 131.7074 156.49008 131.7074 C 155.77211 131.7074 155.19008 131.12537 155.19008 130.4074 C 155.19008 129.68942 155.77211 129.10739 156.49008 129.10739 C 157.20805 129.10739 157.79008 129.68942 157.79008 130.4074 Z M 156.49008 130.4074  " stroke="none"/>
 <path d=" M 121.71518 65.20522 M 123.01518 65.20522 C 123.01518 65.92319 122.43315 66.50522 121.71518 66.50522 C 120.99721 66.50522 120.41518 65.92319 120.41518 65.20522 C 120.41518 64.48724 120.99721 63.90521 121.71518 63.90521 C 122.43315 63.90521 123.01518 64.48724 123.01518 65.20522 Z M 121.71518 65.20522  " stroke="none"/>
 <path d=" M 86.94028 65.20522 M 88.24028 65.20522 C 88.24028 65.92319 87.65825 66.50522 86.94028 66.50522 C 86.2223 66.50522 85.64027 65.92319 85.64027 65.20522 C 85.64027 64.48724 86.2223 63.90521 86.94028 63.90521 C 87.65825 63.90521 88.24028 64.48724 88.24028 65.20522 Z M 86.94028 65.20522  " stroke="none"/>
 <path d=" M 86.94028 101.42845 M 88.24028 101.42845 C 88.24028 102.14642 87.65825 102.72845 86.94028 102.72845 C 86.2223 102.72845 85.64027 102.14642 85.64027 101.42845 C 85.64027 100.71048 86.2223 100.12845 86.94028 100.12845 C 87.65825 100.12845 88.24028 100.71048 88.24028 101.42845 Z M 86.94028 101.42845  " stroke="none"/>
 <path d=" M 156.49008 65.20522 M 157.79008 65.20522 C 157.79008 65.92319 157.20805 66.50522 156.49008 66.50522 C 155.77211 66.50522 155.19008 65.92319 155.19008 65.20522 C 155.19008 64.48724 155.77211 63.90521 156.49008 63.90521 C 157.20805 63.90521 157.79008 64.48724 157.79008 65.20522 Z M 156.49008 65.20522  " stroke="none"/>
 <path d=" M 156.49008 94.18414 M 157.79008 94.18414 C 157.79008 94.90211 157.20805 95.48415 156.49008 95.48415 C 155.77211 95.48415 155.19008 94.90211 155.19008 94.18414 C 155.19008 93.46617 155.77211 92.88414 156.49008 92.88414 C 157.20805 92.88414 157.79008 93.46617 157.79008 94.18414 Z M 156.49008 94.18414  " stroke="none"/>
 <g transform="translate(75.56618,57.52039)">
 <g fill="#000">
 <text style="stroke:none" font-family="Times New Roman, serif" fill="#000" transform="scale(1,-1) translate(3.97916,0)" text-anchor="middle"  font-size="11"> 
 <tspan font-family="Times New Roman, serif" font-style="italic">E</tspan>
 </text> 
</g>
 </g>
 <g transform="translate(81.54791,106.41963)">
 <g fill="#000">
 <text style="stroke:none" font-family="Times New Roman, serif" fill="#000" transform="scale(1,-1) translate(3.90973,0)" text-anchor="middle"  font-size="11"> 
 <tspan font-family="Times New Roman, serif" font-style="italic">F</tspan> 
 </text> 
</g>
 </g>
 <g transform="translate(121.70445,54.39664)">
 <g fill="#000">
 <text style="stroke:none" font-family="Times New Roman, serif" fill="#000" transform="scale(1,-1) translate(4.27847,0)" text-anchor="middle"  font-size="11"> 
 <tspan font-family="Times New Roman, serif" font-style="italic">D</tspan>
 </text> 
</g>
 </g>
 <g transform="translate(160.42183,90.76749)">
 <g fill="#000">
 <text style="stroke:none" font-family="Times New Roman, serif" fill="#000" transform="scale(1,-1) translate(4.60416,0)" text-anchor="middle"  font-size="11"> 
 <tspan font-family="Times New Roman, serif" font-style="italic">K</tspan>
 </text> 
</g>
 </g>
 <g transform="translate(-12.26028,61.13689)">
 <g fill="#000">
 <text style="stroke:none" font-family="Times New Roman, serif" fill="#000" transform="scale(1,-1) translate(3.75,0)" text-anchor="middle"  font-size="11"> 
 <tspan font-family="Times New Roman, serif" font-style="italic">A</tspan> 
 </text> 
</g>
 </g>
 <g transform="translate(80.69746,-11.66515)">
 <g fill="#000">
 <text style="stroke:none" font-family="Times New Roman, serif" fill="#000" transform="scale(1,-1) translate(4.0434,0)" text-anchor="middle"  font-size="11"> 
 <tspan font-family="Times New Roman, serif" font-style="italic">B</tspan> 
 </text> 
</g>
 </g>
 <g transform="translate(158.18375,133.41275)">
 <g fill="#000">
 <text style="stroke:none" font-family="Times New Roman, serif" fill="#000" transform="scale(1,-1) translate(3.93124,0)" text-anchor="middle"  font-size="11"> 
 <tspan font-family="Times New Roman, serif" font-style="italic">C</tspan> 
 </text> 
</g>
 </g>
 <g transform="translate(161.01033,60.41402)">
 <g fill="#000">
 <text style="stroke:none" font-family="Times New Roman, serif" fill="#000" transform="scale(1,-1) translate(3.90451,0)" text-anchor="middle"  font-size="11"> 
 <tspan font-family="Times New Roman, serif" font-style="italic">P</tspan> 
 </text> 
</g>
 </g>
 </g>
 </g>
 </g>
 </g>
 
                                               </g> 
</svg> 
